<svg xmlns="http://www.w3.org/2000/svg" xmlns:xlink="http://www.w3.org/1999/xlink" viewBox="0 0 1366 503.96"><defs><style>.cls-1{fill:url(#Degradado_sin_nombre);}.cls-2{opacity:0.6;fill:url(#Degradado_sin_nombre_4);}.cls-3{fill:url(#Degradado_sin_nombre_5);}.cls-4{fill:url(#Degradado_sin_nombre_5-2);}.cls-5{fill:url(#Degradado_sin_nombre-2);}.cls-6{fill:url(#Degradado_sin_nombre_2);}</style><linearGradient id="Degradado_sin_nombre" x1="84.3" y1="459.9" x2="1283.57" y2="29.96" gradientUnits="userSpaceOnUse"><stop offset="0.05" stop-color="#2574a9"/><stop offset="0.07" stop-color="#2574a9"/><stop offset="0.93" stop-color="#00baff"/></linearGradient><linearGradient id="Degradado_sin_nombre_4" x1="1249.4" y1="194.05" x2="1386.93" y2="144.76" xlink:href="#Degradado_sin_nombre"/><linearGradient id="Degradado_sin_nombre_5" x1="1327.36" y1="318.76" x2="1392.91" y2="242.84" gradientTransform="matrix(1, 0, 0, -1, 0.28, 697.05)" gradientUnits="userSpaceOnUse"><stop offset="0.05" stop-color="#f9690e"/><stop offset="0.8" stop-color="#f9b90e"/></linearGradient><linearGradient id="Degradado_sin_nombre_5-2" x1="617.62" y1="527.13" x2="668.4" y2="468.31" gradientTransform="matrix(-1, 0, 0, 1, 647.83, -408.54)" xlink:href="#Degradado_sin_nombre_5"/><linearGradient id="Degradado_sin_nombre-2" x1="155.38" y1="-189.16" x2="1215.05" y2="190.74" xlink:href="#Degradado_sin_nombre"/><linearGradient id="Degradado_sin_nombre_2" x1="-11.25" y1="374.44" x2="150.25" y2="316.54" gradientTransform="matrix(1, 0, 0, -1, 0.28, 697.05)" xlink:href="#Degradado_sin_nombre"/></defs><title>back-purpose</title><g id="fondo"><path class="cls-1" d="M96.63,488.47c37.43,0,72.51,5.64,102.74,15.49,30.22-9.85,65.3-15.49,102.73-15.49s72.51,5.64,102.74,15.49c30.22-9.85,65.3-15.49,102.73-15.49S580.08,494.11,610.3,504c30.23-9.85,65.31-15.49,102.74-15.49s72.51,5.64,102.73,15.49c30.23-9.85,65.31-15.49,102.74-15.49S991,494.11,1021.25,504c30.22-9.85,65.3-15.49,102.73-15.49s72.51,5.64,102.74,15.49c30.22-9.85,65.3-15.49,102.73-15.49a362.91,362.91,0,0,1,36.83,1.86V0H.28V502C29,493.36,61.81,488.47,96.63,488.47Z" transform="translate(-0.28 0)"/></g><g id="formas"><path class="cls-2" d="M1366.28,269.18l-.71-213.86H1330.7l.06,1.06a61,61,0,0,0-57.31,20.9l-31.68,37.81a61,61,0,0,0-10.49,60.07l16.91,46.33a61,61,0,0,0,46.75,39.17l48.55,8.51,0,.35Z" transform="translate(-0.28 0)"/><path class="cls-3" d="M1366.28,362.3l-31.87,2.81c-27.85,2.45-40.79,35.77-21.91,56.38l53.78,58.68Z" transform="translate(-0.28 0)"/><path class="cls-4" d="M.28,131,25,128.8c21.57-1.9,31.6-27.71,17-43.68L.28,39.67Z" transform="translate(-0.28 0)"/><line class="cls-5" x2="1366"/><path class="cls-6" d="M185.3,311.24c0-38.51-52.73-69.73-117.77-69.73-25,0-48.18,4.61-67.25,12.48V447.67a192.94,192.94,0,0,0,34.51,3.05c65.05,0,117.77-31.22,117.77-69.74a43.85,43.85,0,0,0-4.39-18.92C171,349.34,185.3,331.28,185.3,311.24Z" transform="translate(-0.28 0)"/></g></svg>